<svg width="77" height="24" viewBox="0 0 77 24" fill="none" xmlns="http://www.w3.org/2000/svg">
<path d="M9.65596 1.62545H12.8705V16.7797C12.8705 18.1504 12.5991 19.3228 12.0564 20.2969C11.5207 21.271 10.7657 22.0155 9.79164 22.5303C8.81754 23.0383 7.67645 23.2922 6.36837 23.2922C5.16466 23.2922 4.08272 23.0731 3.12253 22.6347C2.16931 22.1964 1.41438 21.5597 0.857749 20.7248C0.308078 19.8829 0.0332422 18.8601 0.0332422 17.6564H3.23734C3.23734 18.2478 3.37301 18.7592 3.64437 19.1906C3.92269 19.622 4.30189 19.9594 4.78198 20.2029C5.26903 20.4395 5.82566 20.5578 6.45187 20.5578C7.13374 20.5578 7.71124 20.4152 8.18437 20.1299C8.66447 19.8377 9.02975 19.4097 9.28024 18.8462C9.53072 18.2826 9.65596 17.5937 9.65596 16.7797V1.62545ZM16.1384 23V6.96909H19.259V23H16.1384ZM17.7143 4.49557C17.1716 4.49557 16.7054 4.31467 16.3158 3.95286C15.9331 3.58409 15.7418 3.14575 15.7418 2.63782C15.7418 2.12294 15.9331 1.6846 16.3158 1.32279C16.7054 0.954021 17.1716 0.769638 17.7143 0.769638C18.257 0.769638 18.7197 0.954021 19.1024 1.32279C19.492 1.6846 19.6869 2.12294 19.6869 2.63782C19.6869 3.14575 19.492 3.58409 19.1024 3.95286C18.7197 4.31467 18.257 4.49557 17.7143 4.49557ZM29.7647 6.96909V9.47392H21.0083V6.96909H29.7647ZM23.3565 3.12835H26.4771V18.293C26.4771 18.8983 26.5676 19.3541 26.7485 19.6602C26.9294 19.9594 27.1625 20.1647 27.4478 20.276C27.74 20.3804 28.0566 20.4325 28.3975 20.4325C28.648 20.4325 28.8672 20.4152 29.055 20.3804C29.2429 20.3456 29.389 20.3177 29.4934 20.2969L30.057 22.8748C29.8761 22.9443 29.6186 23.0139 29.2846 23.0835C28.9507 23.16 28.5332 23.2018 28.0322 23.2087C27.2112 23.2227 26.4458 23.0765 25.7361 22.7704C25.0264 22.4642 24.4524 21.9911 24.0141 21.351C23.5757 20.7109 23.3565 19.9072 23.3565 18.9401V3.12835Z" fill="white"/>
<path d="M36.7063 23.3549C35.6905 23.3549 34.7721 23.167 33.951 22.7913C33.13 22.4086 32.4794 21.8554 31.9994 21.1318C31.5262 20.4082 31.2897 19.5211 31.2897 18.4704C31.2897 17.5659 31.4636 16.8214 31.8115 16.237C32.1594 15.6525 32.629 15.1898 33.2205 14.8489C33.8119 14.5079 34.4729 14.2505 35.2034 14.0765C35.934 13.9026 36.6785 13.7704 37.4369 13.6799C38.3971 13.5686 39.1764 13.4782 39.7748 13.4086C40.3731 13.3321 40.808 13.2103 41.0794 13.0433C41.3507 12.8763 41.4864 12.605 41.4864 12.2292V12.1562C41.4864 11.2447 41.229 10.5385 40.7141 10.0375C40.2061 9.53654 39.4477 9.28606 38.4389 9.28606C37.3882 9.28606 36.5602 9.51915 35.9549 9.98532C35.3565 10.4445 34.9425 10.9559 34.7129 11.5195L31.7802 10.8516C32.1281 9.87748 32.636 9.09124 33.304 8.49286C33.9789 7.88753 34.7547 7.44918 35.6314 7.17783C36.508 6.89951 37.43 6.76036 38.3971 6.76036C39.0372 6.76036 39.7156 6.83689 40.4323 6.98996C41.1559 7.13608 41.8308 7.40744 42.457 7.80403C43.0902 8.20063 43.6085 8.7677 44.0121 9.50523C44.4157 10.2358 44.6174 11.1856 44.6174 12.3545V23H41.5699V20.8083H41.4446C41.2429 21.2118 40.9402 21.6084 40.5366 21.9981C40.1331 22.3877 39.6147 22.7112 38.9816 22.9687C38.3484 23.2261 37.59 23.3549 36.7063 23.3549ZM37.3847 20.85C38.2475 20.85 38.985 20.6796 39.5973 20.3386C40.2166 19.9977 40.6862 19.5524 41.0063 19.0027C41.3333 18.4461 41.4968 17.8512 41.4968 17.218V15.1515C41.3855 15.2629 41.1698 15.3672 40.8498 15.4646C40.5366 15.5551 40.1783 15.6351 39.7748 15.7047C39.3712 15.7673 38.9781 15.8264 38.5954 15.8821C38.2127 15.9308 37.8927 15.9726 37.6352 16.0074C37.0299 16.0839 36.4767 16.2126 35.9758 16.3935C35.4818 16.5744 35.0852 16.8353 34.786 17.1763C34.4937 17.5102 34.3476 17.9556 34.3476 18.5122C34.3476 19.2845 34.6329 19.869 35.2034 20.2656C35.774 20.6552 36.5011 20.85 37.3847 20.85ZM50.4684 17.5624L50.4475 13.753H50.9902L57.3776 6.96909H61.1139L53.829 14.6923H53.3385L50.4684 17.5624ZM47.5983 23V1.62545H50.7189V23H47.5983ZM57.722 23L51.9817 15.3811L54.1317 13.1999L61.5523 23H57.722ZM72.9373 16.3518V6.96909H76.0684V23H73V20.2238H72.833C72.4642 21.0796 71.8728 21.7928 71.0587 22.3634C70.2516 22.9269 69.2462 23.2087 68.0425 23.2087C67.0127 23.2087 66.1012 22.9826 65.3081 22.5303C64.5218 22.0711 63.9026 21.3927 63.4503 20.4952C63.005 19.5976 62.7823 18.4878 62.7823 17.1658V6.96909H65.903V16.7901C65.903 17.8825 66.2056 18.7522 66.811 19.3993C67.4163 20.0464 68.2025 20.3699 69.1697 20.3699C69.7541 20.3699 70.3351 20.2238 70.9126 19.9316C71.4971 19.6394 71.9806 19.1975 72.3633 18.6061C72.753 18.0147 72.9443 17.2632 72.9373 16.3518Z" fill="#2E71FF"/>
</svg>
